<?xml version="1.0" encoding="UTF-8" standalone="no"?>
<!DOCTYPE svg PUBLIC "-//W3C//DTD SVG 1.1//EN" "http://www.w3.org/Graphics/SVG/1.1/DTD/svg11.dtd">
<svg width="100%" height="100%" viewBox="0 0 207 207" version="1.1" xmlns="http://www.w3.org/2000/svg" xmlns:xlink="http://www.w3.org/1999/xlink" xml:space="preserve" xmlns:serif="http://www.serif.com/" style="fill-rule:evenodd;clip-rule:evenodd;stroke-linejoin:round;stroke-miterlimit:2;">
    <rect id="Artboard1" x="0" y="0" width="207" height="207" style="fill:none;"/>
    <g id="Artboard11" serif:id="Artboard1">
        <circle cx="103.5" cy="103.5" r="103.5" style="fill:#fff;"/>
        <g>
            <path d="M194.128,66.07c-32.512,-15.681 -75.762,-22.11 -115.805,-14.62c7.846,-10.275 14.132,-17.785 20.092,-24.081c7.3,-7.71 14.112,-13.599 22.708,-20.512c33.941,6.159 60.83,27.784 73.005,59.213Z" style="fill:#ff3e00;"/>
        </g>
        <g>
            <path d="M116.399,6.299c-29.836,20.316 -57.029,54.556 -70.564,92.98c-4.975,-11.932 -8.337,-21.131 -10.809,-29.441c-3.027,-10.177 -4.721,-19.021 -6.41,-29.921c22.304,-26.315 54.477,-38.789 87.783,-33.618Z" style="fill:#ff3e00;"/>
        </g>
        <g>
            <path d="M25.771,43.729c2.676,35.997 18.733,76.666 45.241,107.6c-12.821,-1.658 -22.468,-3.346 -30.901,-5.36c-10.327,-2.467 -18.833,-5.422 -29.118,-9.409c-11.637,-32.474 -6.353,-66.573 14.778,-92.831Z" style="fill:#ff3e00;"/>
        </g>
        <g>
            <path d="M12.872,140.93c32.512,15.681 75.762,22.11 115.805,14.62c-7.846,10.275 -14.132,17.785 -20.092,24.081c-7.3,7.71 -14.112,13.599 -22.708,20.512c-33.941,-6.159 -60.83,-27.784 -73.005,-59.213Z" style="fill:#ff3e00;"/>
        </g>
        <g>
            <path d="M90.601,200.701c29.836,-20.316 57.029,-54.556 70.564,-92.98c4.975,11.932 8.337,21.131 10.809,29.441c3.027,10.177 4.721,19.021 6.41,29.921c-22.304,26.315 -54.477,38.789 -87.783,33.618Z" style="fill:#ff3e00;"/>
        </g>
        <g>
            <path d="M181.229,163.271c-2.676,-35.997 -18.495,-77.666 -45.004,-108.6c25.035,3.093 37.995,6.485 59.782,15.769c11.637,32.474 6.353,66.573 -14.778,92.831Z" style="fill:#ff3e00;"/>
        </g>
    </g>
</svg>
